<?xml version="1.0" encoding="utf-8"?>
<!-- Generator: Adobe Illustrator 24.0.0, SVG Export Plug-In . SVG Version: 6.00 Build 0)  -->
<svg version="1.1" xmlns="http://www.w3.org/2000/svg" xmlns:xlink="http://www.w3.org/1999/xlink" x="0px" y="0px"
	 viewBox="0 0 256 256" enable-background="new 0 0 256 256" xml:space="preserve">
<g id="Layer_1">
</g>
<g id="Layer_2">
</g>
<g id="Layer_3">
</g>
<g id="Layer_4">
</g>
<g id="Layer_5">
</g>
<g id="Layer_6">
</g>
<g id="Layer_7">
</g>
<g id="Layer_8">
</g>
<g id="Layer_9">
</g>
<g id="Layer_10">
</g>
<g id="Layer_11">
</g>
<g id="Layer_12">
</g>
<g id="Layer_13">
</g>
<g id="Layer_14">
</g>
<g id="Layer_15">
</g>
<g id="Layer_16">
</g>
<g id="Layer_17">
</g>
<g id="Layer_18">
</g>
<g id="Layer_19">
</g>
<g id="Layer_20">
</g>
<g id="Layer_21">
</g>
<g id="Layer_22">
</g>
<g id="Layer_23">
</g>
<g id="Layer_24">
</g>
<g id="Layer_25">
</g>
<g id="Layer_26">
</g>
<g id="Layer_27">
</g>
<g id="Layer_28">
</g>
<g id="Layer_29">
</g>
<g id="Layer_30">
</g>
<g id="Layer_31">
</g>
<g id="Layer_32">
</g>
<g id="Layer_33">
</g>
<g id="Layer_34">
</g>
<g id="Layer_35">
</g>
<g id="Layer_36">
</g>
<g id="Layer_37">
</g>
<g id="Layer_38">
</g>
<g id="Layer_39">
</g>
<g id="Layer_40">
</g>
<g id="Layer_41">
</g>
<g id="Layer_42">
</g>
<g id="Layer_43">
</g>
<g id="Layer_44">
</g>
<g id="Layer_45">
</g>
<g id="Layer_46">
</g>
<g id="Layer_47">
</g>
<g id="Layer_48">
</g>
<g id="Layer_49">
</g>
<g id="Layer_50">
</g>
<g id="Layer_51">
	<g>
		<g>
			<g>
				<path fill="#C49A6C" d="M174.341,240.915H81.66c-2.208,0-3.998,1.79-3.998,3.998v4.588c0,2.208,1.79,3.998,3.998,3.998h92.681
					c2.208,0,3.998-1.79,3.998-3.998v-4.588C178.339,242.706,176.549,240.915,174.341,240.915z"/>
			</g>
		</g>
		<g>
			<g>
				<path fill="#B26E2B" d="M168.392,202.637H87.608c-2.887,0-5.228,2.341-5.228,5.228v33.051h91.239v-33.051
					C173.62,204.977,171.279,202.637,168.392,202.637z"/>
			</g>
		</g>
		<g>
			<g>
				<path fill="#F5C84C" d="M177.935,29.246h-99.87c-2.578,0-4.668,2.09-4.668,4.668v46.091c0,8.866,2.858,17.549,8.356,24.504
					c10.623,13.439,23.897,20.541,30.586,23.493c2.516,1.11,5.229,1.69,7.979,1.69h15.365c2.75,0,5.463-0.58,7.979-1.69
					c6.688-2.951,19.962-10.053,30.586-23.493c5.498-6.956,8.356-15.638,8.356-24.504V33.914
					C182.603,31.335,180.513,29.246,177.935,29.246z"/>
			</g>
		</g>
		<g>
			<g>
				<path fill="#EDB311" d="M88.706,112.135c8.952,8.595,18.348,13.534,23.633,15.866c2.516,1.111,5.229,1.69,7.979,1.69h15.365
					c2.75,0,5.463-0.579,7.979-1.69c5.285-2.332,14.681-7.272,23.633-15.866H88.706z"/>
			</g>
		</g>
		<g>
			<g>
				<path fill="#FCDD86" d="M141.399,166.563c-4.012-3.917-6.32-9.254-6.32-14.861v-22.011h-14.158v22.011
					c0,5.606-2.308,10.944-6.32,14.861c-11.796,11.513-18.044,26.896-20.94,36.073h68.677
					C159.443,193.46,153.194,178.077,141.399,166.563z"/>
			</g>
		</g>
		<g>
			<g>
				<path fill="#F5C84C" d="M141.399,166.563c-4.012-3.917-6.32-9.254-6.32-14.861v-22.011h-14.158v22.011
					c0,5.606-2.308,10.944-6.32,14.861c-2.987,2.916-5.612,6.082-7.923,9.331h42.644
					C147.01,172.646,144.386,169.479,141.399,166.563z"/>
			</g>
		</g>
		<g>
			<g>
				<path fill="#FCDD86" d="M209.46,3.038c-0.46-0.098-0.922-0.183-1.385-0.257c-8.138-1.28-16.077,1.864-21.236,8.412
					c-5.232,6.64-6.486,15.592-3.267,23.378l0.059,0.142c1.916,4.634,5.994,7.922,10.908,8.796l0.144,0.026
					c2.851,0.507,5.574-1.393,6.081-4.245c0.507-2.851-1.393-5.573-4.244-6.081l-0.144-0.026c-1.371-0.244-2.512-1.171-3.059-2.494
					l-0.06-0.142c-1.792-4.334-1.112-9.144,1.82-12.864c2.778-3.526,7.028-5.224,11.365-4.542c0.271,0.042,0.544,0.093,0.816,0.151
					c7.493,1.609,12.458,9.272,11.069,17.084L214.11,54.09c-2.805,15.772-16.103,27.174-31.57,28.058
					c-0.188,3.6-0.846,7.147-1.963,10.54c21.31,0.018,40.036-15.269,43.858-36.761l4.218-23.715
					C231.019,18.906,222.409,5.819,209.46,3.038z"/>
			</g>
		</g>
		<g>
			<g>
				<path fill="#FCDD86" d="M73.46,82.148C57.993,81.265,44.695,69.862,41.89,54.09l-4.218-23.715
					c-1.389-7.812,3.577-15.475,11.069-17.084c0.273-0.059,0.545-0.109,0.816-0.151c4.337-0.682,8.587,1.016,11.365,4.542
					c2.932,3.721,3.612,8.53,1.82,12.864l-0.06,0.142c-0.547,1.324-1.688,2.251-3.059,2.494l-0.144,0.026
					c-2.851,0.507-4.752,3.229-4.244,6.081c0.507,2.852,3.23,4.752,6.081,4.245l0.144-0.026c4.914-0.874,8.992-4.162,10.908-8.796
					l0.059-0.142c3.219-7.786,1.965-16.738-3.267-23.378c-5.159-6.547-13.097-9.691-21.236-8.412C47.462,2.855,47,2.939,46.54,3.038
					C33.591,5.819,24.981,18.906,27.347,32.212l4.218,23.715c3.822,21.492,22.549,36.779,43.858,36.761
					C74.306,89.295,73.648,85.748,73.46,82.148z"/>
			</g>
		</g>
		<g>
			<g>
				<path fill="#70D6F9" d="M81.2,177.9h-2.3v-2.3c0-1.7-1.4-3.2-3.2-3.2s-3.2,1.4-3.2,3.2v2.3h-2.3c-1.7,0-3.2,1.4-3.2,3.2
					c0,1.8,1.4,3.2,3.2,3.2h2.3v2.3c0,1.7,1.4,3.2,3.2,3.2s3.2-1.4,3.2-3.2v-2.3h2.3c1.7,0,3.2-1.4,3.2-3.2
					C84.4,179.3,83,177.9,81.2,177.9z"/>
			</g>
		</g>
		<g>
			<g>
				<path fill="#F5C84C" d="M196.8,118.85c-4.5-0.8-8-4.3-8.9-8.7c0-0.2-0.4-0.2-0.4,0c-0.9,4.4-4.4,7.9-8.9,8.7
					c-0.2,0-0.2,0.3,0,0.4c4.5,0.8,8,4.3,8.9,8.7c0,0.2,0.4,0.2,0.4,0c0.9-4.4,4.4-7.9,8.9-8.7C197,119.15,197,118.85,196.8,118.85z
					"/>
			</g>
		</g>
		<g>
			<g>
				<path fill="#FC657E" d="M117.214,12.356c-3.24-0.576-5.761-3.096-6.409-6.265c0-0.144-0.288-0.144-0.288,0
					c-0.648,3.168-3.168,5.688-6.409,6.265c-0.144,0-0.144,0.216,0,0.288c3.24,0.576,5.761,3.096,6.409,6.265
					c0,0.144,0.288,0.144,0.288,0c0.648-3.168,3.168-5.688,6.409-6.265C117.358,12.572,117.358,12.356,117.214,12.356z"/>
			</g>
		</g>
		<g>
			<g>
				<path fill="#87D147" d="M168.8,131.5c-1.878,0-3.4,1.522-3.4,3.4c0,1.878,1.522,3.4,3.4,3.4c1.878,0,3.4-1.522,3.4-3.4
					C172.2,133.022,170.678,131.5,168.8,131.5z"/>
			</g>
		</g>
		<g>
			<g>
				<path fill="#F5C84C" d="M64.8,205.5c-1.878,0-3.4,1.522-3.4,3.4c0,1.878,1.522,3.4,3.4,3.4c1.878,0,3.4-1.522,3.4-3.4
					C68.2,207.022,66.678,205.5,64.8,205.5z"/>
			</g>
		</g>
		<g>
			<g>
				<g>
					<g>
						<path d="M177.935,26.746H78.065c-3.953,0-7.168,3.215-7.168,7.167v46.092c0,9.546,3.159,18.799,8.895,26.055
							c10.891,13.776,24.434,21.094,31.538,24.229c2.861,1.263,5.885,1.902,8.988,1.902h15.365c3.104,0,6.127-0.64,8.989-1.902
							c7.104-3.136,20.646-10.453,31.537-24.229c5.736-7.256,8.895-16.509,8.895-26.055V33.913
							C185.103,29.961,181.887,26.746,177.935,26.746z M180.103,80.005c0,8.425-2.776,16.577-7.817,22.953
							c-10.221,12.931-22.954,19.809-29.633,22.757c-2.221,0.979-4.566,1.477-6.97,1.477h-15.365c-2.404,0-4.749-0.497-6.969-1.477
							c-6.68-2.948-19.413-9.826-29.634-22.757c-5.041-6.376-7.817-14.528-7.817-22.953V33.913c0-1.195,0.973-2.167,2.168-2.167
							h99.869c1.196,0,2.168,0.972,2.168,2.167V80.005z"/>
					</g>
				</g>
			</g>
		</g>
		<g>
			<g>
				<path d="M166.719,109.635H89.406c-1.381,0-2.5,1.119-2.5,2.5s1.119,2.5,2.5,2.5h77.313c1.381,0,2.5-1.119,2.5-2.5
					S168.1,109.635,166.719,109.635z"/>
			</g>
		</g>
		<g>
			<g>
				<path d="M164.501,201.192c-3.351-10.374-9.775-25.113-21.356-36.418c-3.537-3.452-5.566-8.217-5.566-13.072v-21.296
					c0-1.381-1.119-2.5-2.5-2.5s-2.5,1.119-2.5,2.5v21.296c0,6.194,2.578,12.263,7.074,16.65
					c10.849,10.59,16.914,24.539,20.091,34.377c0.342,1.059,1.323,1.732,2.378,1.732c0.254,0,0.514-0.039,0.769-0.122
					C164.205,203.916,164.926,202.507,164.501,201.192z"/>
			</g>
		</g>
		<g>
			<g>
				<path d="M120.921,127.958c-1.381,0-2.5,1.119-2.5,2.5v21.244c0,4.855-2.029,9.62-5.566,13.072
					c-11.541,11.266-17.96,25.948-21.313,36.281c-0.426,1.313,0.293,2.724,1.606,3.149c0.256,0.083,0.516,0.123,0.772,0.123
					c1.054,0,2.035-0.673,2.377-1.729c3.179-9.798,9.238-23.693,20.049-34.246c4.496-4.388,7.074-10.456,7.074-16.65v-21.244
					C123.421,129.077,122.302,127.958,120.921,127.958z"/>
			</g>
		</g>
		<g>
			<g>
				<path d="M148.792,173.395h-41.625c-1.381,0-2.5,1.119-2.5,2.5s1.119,2.5,2.5,2.5h41.625c1.381,0,2.5-1.119,2.5-2.5
					S150.172,173.395,148.792,173.395z"/>
			</g>
		</g>
		<g>
			<g>
				<g>
					<g>
						<path d="M174.34,238.415H81.66c-3.583,0-6.499,2.915-6.499,6.498v4.589c0,3.583,2.915,6.498,6.499,6.498h92.681
							c3.583,0,6.499-2.915,6.499-6.498v-4.589C180.839,241.33,177.924,238.415,174.34,238.415z M175.839,249.502
							c0,0.826-0.672,1.498-1.499,1.498H81.66c-0.826,0-1.499-0.672-1.499-1.498v-4.589c0-0.826,0.672-1.498,1.499-1.498h92.681
							c0.826,0,1.499,0.672,1.499,1.498V249.502z"/>
					</g>
				</g>
			</g>
		</g>
		<g>
			<g>
				<path d="M168.392,200.137H87.608c-4.261,0-7.728,3.467-7.728,7.728v32.094c0,1.381,1.119,2.5,2.5,2.5s2.5-1.119,2.5-2.5v-32.094
					c0-1.504,1.224-2.728,2.728-2.728h80.784c1.504,0,2.728,1.224,2.728,2.728v32.261c0,1.381,1.119,2.5,2.5,2.5s2.5-1.119,2.5-2.5
					v-32.261C176.12,203.604,172.653,200.137,168.392,200.137z"/>
			</g>
		</g>
		<g>
			<g>
				
					<ellipse transform="matrix(0.3827 -0.9239 0.9239 0.3827 43.1155 161.1041)" fill="#FCDD86" cx="142.113" cy="48.289" rx="6.511" ry="6.511"/>
			</g>
		</g>
		<g>
			<g>
				<path fill="#FCDD86" d="M137.73,79.664l-9.06-5.096l9.662-10.286c1.978-2.103,1.274-5.524-1.121-6.802l-13.022-6.945
					c-1.578-0.841-3.509-0.629-4.867,0.534l-12.153,10.417c-1.82,1.56-2.031,4.3-0.471,6.12c1.558,1.817,4.298,2.033,6.12,0.471
					l9.902-8.488l5.402,2.881l-9.573,10.19c-1.93,2.055-1.417,5.376,1.036,6.755l9.089,5.112l-7.537,8.117
					c-1.631,1.757-1.529,4.503,0.227,6.134c1.757,1.632,4.503,1.529,6.134-0.227L138.783,86.4
					C140.689,84.346,140.179,81.041,137.73,79.664z"/>
			</g>
		</g>
		<g>
			<g>
				<path fill="#FCDD86" d="M119.584,79.417c-2.453-1.379-2.966-4.7-1.036-6.755l0.079-0.084L97.874,92.466
					c-1.731,1.659-1.789,4.406-0.131,6.137c1.655,1.727,4.403,1.793,6.137,0.131l18.51-17.739L119.584,79.417z"/>
			</g>
		</g>
		<g>
			<g>
				<path fill="#FCDD86" d="M163.911,57.971c-1.364-1.971-4.068-2.462-6.039-1.098l-9.172,6.35l-11.54-5.77l0.051,0.027
					c2.395,1.278,3.098,4.698,1.121,6.802l-2.213,2.356l10.999,5.499c1.414,0.708,3.106,0.59,4.412-0.314l11.285-7.813
					C164.784,62.646,165.276,59.942,163.911,57.971z"/>
			</g>
		</g>
		<g>
			<g>
				<g>
					<g>
						<path d="M142.112,39.277c-4.969,0-9.011,4.042-9.011,9.011s4.042,9.011,9.011,9.011s9.011-4.042,9.011-9.011
							S147.081,39.277,142.112,39.277z M142.112,52.299c-2.211,0-4.011-1.799-4.011-4.011s1.799-4.011,4.011-4.011
							s4.011,1.799,4.011,4.011S144.324,52.299,142.112,52.299z"/>
					</g>
				</g>
			</g>
		</g>
		<g>
			<g>
				<g>
					<g>
						<path d="M142.359,82.388c-0.326-2.083-1.566-3.87-3.404-4.902l-6.279-3.532l7.476-7.959c1.452-1.544,2.084-3.646,1.735-5.769
							c-0.349-2.117-1.657-3.968-3.5-4.951l-13.022-6.945c-2.503-1.335-5.514-1.003-7.67,0.842l-12.153,10.417
							c-2.863,2.455-3.196,6.782-0.742,9.647c2.457,2.862,6.782,3.193,9.645,0.741l8.606-7.376l1.013,0.54l-7.336,7.81
							c-1.449,1.543-2.096,3.628-1.775,5.721c0.321,2.094,1.563,3.889,3.407,4.925l6.324,3.558l-5.378,5.792
							c-2.566,2.764-2.406,7.101,0.358,9.668c1.314,1.221,2.984,1.824,4.651,1.824c1.837-0.001,3.67-0.734,5.016-2.183
							l11.286-12.153C142.05,86.556,142.686,84.474,142.359,82.388z M136.951,84.699l-11.285,12.153
							c-0.69,0.743-1.858,0.786-2.601,0.098c-0.744-0.691-0.787-1.859-0.097-2.603l7.537-8.117c0.521-0.562,0.756-1.33,0.638-2.087
							c-0.119-0.757-0.577-1.418-1.245-1.793l-9.089-5.113c-0.495-0.278-0.829-0.761-0.915-1.324
							c-0.051-0.331-0.057-0.972,0.477-1.539l9.573-10.19c0.533-0.567,0.771-1.351,0.645-2.118c-0.126-0.769-0.604-1.434-1.291-1.8
							l-5.402-2.881c-0.37-0.197-0.774-0.294-1.176-0.294c-0.584,0-1.164,0.205-1.627,0.602l-9.902,8.487
							c-0.771,0.66-1.936,0.57-2.595-0.199c-0.661-0.771-0.571-1.936,0.2-2.596l12.152-10.416c0.58-0.498,1.392-0.587,2.065-0.228
							l13.022,6.945c0.479,0.255,0.823,0.761,0.92,1.351c0.055,0.337,0.071,0.984-0.445,1.533l-9.662,10.285
							c-0.526,0.561-0.765,1.331-0.649,2.091c0.117,0.76,0.576,1.423,1.246,1.8l9.061,5.097c0,0,0,0,0,0.001
							c0.676,0.38,0.863,0.988,0.915,1.317C137.507,83.724,137.336,84.284,136.951,84.699z"/>
					</g>
				</g>
			</g>
		</g>
		<g>
			<g>
				<path d="M123.824,79.622c-0.956-0.997-2.537-1.032-3.535-0.075L102.15,96.929c-0.355,0.341-0.814,0.511-1.313,0.512
					c-0.491-0.011-0.949-0.212-1.289-0.566c-0.34-0.355-0.521-0.821-0.511-1.313c0.01-0.492,0.211-0.949,0.567-1.29l20.591-19.733
					c0.997-0.955,1.03-2.538,0.075-3.534c-0.955-0.997-2.537-1.031-3.535-0.075l-20.59,19.732c-1.319,1.265-2.067,2.967-2.106,4.794
					c-0.039,1.826,0.636,3.559,1.9,4.878c1.263,1.317,2.963,2.065,4.788,2.105c0.052,0.002,0.104,0.002,0.155,0.002
					c1.771,0,3.446-0.672,4.729-1.902l18.138-17.382C124.746,82.201,124.779,80.619,123.824,79.622z"/>
			</g>
		</g>
		<g>
			<g>
				<path d="M165.967,56.548c-1.04-1.502-2.603-2.51-4.4-2.836c-1.796-0.326-3.615,0.065-5.118,1.105l-7.955,5.508l-9.925-4.963
					c-1.235-0.619-2.736-0.117-3.354,1.118s-0.117,2.736,1.118,3.354l11.249,5.625c0.816,0.408,1.791,0.34,2.542-0.181l9.172-6.351
					c0.405-0.279,0.894-0.386,1.377-0.298s0.904,0.358,1.183,0.763c0.28,0.404,0.386,0.895,0.298,1.378
					c-0.087,0.483-0.358,0.904-0.763,1.184l-11.285,7.813c-0.555,0.384-1.271,0.434-1.872,0.133l-10.453-5.226
					c-1.235-0.619-2.737-0.117-3.354,1.118c-0.617,1.235-0.117,2.737,1.119,3.354l10.452,5.225c0.968,0.484,2.016,0.724,3.06,0.724
					c1.368,0,2.729-0.41,3.894-1.217l11.285-7.813c1.502-1.04,2.51-2.603,2.837-4.401C167.399,59.868,167.007,58.051,165.967,56.548
					z"/>
			</g>
		</g>
		<g>
			<g>
				<path d="M209.984,0.594c-0.504-0.108-1.01-0.201-1.52-0.282c-9.042-1.424-17.861,2.067-23.588,9.334
					c-5.791,7.349-7.175,17.265-3.61,25.888l0.056,0.134c2.243,5.426,7.021,9.277,12.783,10.304l0.142,0.024
					c4.205,0.756,8.232-2.063,8.98-6.269c0.747-4.204-2.065-8.231-6.254-8.977l-0.159-0.029c-0.533-0.095-0.965-0.454-1.192-1.002
					l-0.053-0.127c-1.442-3.487-0.892-7.361,1.473-10.362c2.211-2.807,5.578-4.162,9.026-3.617c0.221,0.033,0.443,0.075,0.666,0.123
					c6.192,1.331,10.29,7.702,9.133,14.203l-4.218,23.714c-2.512,14.127-14.239,24.798-28.519,25.949
					c-1.376,0.111-2.402,1.316-2.291,2.693c0.111,1.376,1.335,2.397,2.692,2.291c16.543-1.334,30.129-13.694,33.04-30.059
					l4.218-23.714c1.622-9.12-4.212-18.077-13.005-19.967c-0.323-0.069-0.646-0.129-0.953-0.176
					c-5.244-0.827-10.372,1.219-13.718,5.465c-3.499,4.44-4.309,10.185-2.16,15.381l0.053,0.127
					c0.873,2.112,2.717,3.607,4.918,3.998l0.158,0.028c1.489,0.266,2.485,1.692,2.221,3.182c-0.265,1.489-1.691,2.489-3.184,2.221
					l-0.141-0.024c-4.07-0.725-7.448-3.45-9.04-7.299l-0.056-0.134c-2.872-6.946-1.753-14.945,2.919-20.875
					c4.592-5.827,11.65-8.632,18.882-7.489c0.418,0.065,0.835,0.143,1.25,0.231c11.648,2.502,19.389,14.296,17.256,26.292
					l-4.218,23.715c-3.513,19.75-20.597,34.34-40.622,34.691c-1.38,0.024-2.48,1.163-2.456,2.544
					c0.024,1.365,1.138,2.456,2.499,2.456h0.045c22.409-0.394,41.526-16.718,45.457-38.816l4.218-23.715
					C233.713,18.034,224.235,3.654,209.984,0.594z"/>
			</g>
		</g>
		<g>
			<g>
				<path d="M74.727,90.183c-20.064-0.315-37.182-14.906-40.701-34.693l-4.218-23.715c-2.133-11.996,5.608-23.79,17.254-26.292
					c0.417-0.089,0.833-0.166,1.25-0.231c7.232-1.135,14.292,1.662,18.884,7.488c4.673,5.931,5.792,13.93,2.923,20.868l-0.062,0.149
					c-1.588,3.841-4.966,6.566-9.034,7.29l-0.146,0.026c-1.489,0.259-2.917-0.732-3.182-2.222s0.731-2.916,2.235-3.184l0.128-0.023
					c2.216-0.394,4.061-1.889,4.927-3.986l0.066-0.156c2.142-5.182,1.332-10.926-2.167-15.366
					c-3.346-4.247-8.472-6.288-13.704-5.467c-0.32,0.049-0.644,0.108-0.966,0.178c-8.793,1.89-14.627,10.847-13.005,19.967
					l4.218,23.714c2.928,16.466,16.604,28.833,33.257,30.075c1.387,0.106,2.576-0.931,2.679-2.308
					c0.103-1.377-0.93-2.576-2.307-2.679C58.684,78.544,46.88,67.867,44.352,53.652l-4.218-23.714
					c-1.156-6.501,2.941-12.872,9.133-14.203c0.222-0.048,0.445-0.09,0.679-0.125c3.432-0.537,6.802,0.813,9.013,3.619
					c2.365,3.001,2.916,6.875,1.479,10.348l-0.066,0.156c-0.22,0.533-0.652,0.894-1.201,0.99l-0.129,0.024
					c-4.204,0.747-7.016,4.774-6.269,8.979c0.748,4.204,4.772,7.017,8.978,6.27l0.146-0.026c5.759-1.025,10.537-4.877,12.777-10.295
					l0.063-0.149c3.562-8.615,2.177-18.531-3.614-25.881C65.397,2.379,56.577-1.11,47.535,0.312
					c-0.508,0.081-1.014,0.174-1.52,0.282c-14.25,3.061-23.728,17.44-21.129,32.056l4.218,23.715
					c3.938,22.14,23.092,38.465,45.545,38.818h0.04c1.362,0,2.477-1.094,2.499-2.461C77.209,91.342,76.108,90.205,74.727,90.183z"/>
			</g>
		</g>
	</g>
</g>
<g id="Layer_52">
</g>
<g id="Layer_53">
</g>
<g id="Layer_54">
</g>
<g id="Layer_55">
</g>
<g id="Layer_56">
</g>
<g id="Layer_57">
</g>
<g id="Layer_58">
</g>
<g id="Layer_59">
</g>
<g id="Layer_60">
</g>
<g id="Layer_61">
</g>
<g id="Layer_62">
</g>
<g id="Layer_63">
</g>
<g id="Layer_64">
</g>
<g id="Layer_65">
</g>
<g id="Layer_66">
</g>
<g id="Layer_67">
</g>
<g id="Layer_68">
</g>
<g id="Layer_69">
</g>
<g id="Layer_70">
</g>
<g id="Layer_71">
</g>
<g id="Layer_72">
</g>
<g id="Layer_73">
</g>
<g id="Layer_74">
</g>
<g id="Layer_75">
</g>
</svg>
