<svg width="341" height="342" xmlns="http://www.w3.org/2000/svg" xml:space="preserve" overflow="hidden"><defs><clipPath id="clip0"><rect x="806" y="189" width="341" height="342"/></clipPath></defs><g clip-path="url(#clip0)" transform="translate(-806 -189)"><path d="M170.5 10.6562C82.0531 10.6562 10.6562 82.0531 10.6562 170.5 10.6562 258.947 82.0531 330.344 170.5 330.344 258.947 330.344 330.344 258.947 330.344 170.5 330.344 82.0531 258.947 10.6562 170.5 10.6562ZM271.734 61.8063 170.5 163.041 69.2656 61.8063C95.9062 36.2313 131.072 21.3125 170.5 21.3125 209.928 21.3125 245.094 36.2313 271.734 61.8063ZM21.3125 170.5C21.3125 131.072 36.2313 95.9062 61.8063 69.2656L163.041 170.5 61.8063 271.734C36.2313 245.094 21.3125 209.928 21.3125 170.5ZM69.2656 279.194 170.5 177.959 271.734 279.194C245.094 304.769 209.928 319.688 170.5 319.688 131.072 319.688 95.9062 304.769 69.2656 279.194ZM279.194 271.734 177.959 170.5 279.194 69.2656C304.769 95.9062 319.688 131.072 319.688 170.5 319.688 209.928 304.769 245.094 279.194 271.734Z" fill="#FF0000" transform="matrix(1 0 0 1.00293 806 189)"/></g></svg>